<svg width="271" height="68" viewBox="0 0 271 68" fill="none" xmlns="http://www.w3.org/2000/svg">
<path d="M11.7123 61.2682V40.7521L47.6521 14.5023L57.5614 21.7415L67.4899 14.4895L47.6521 0L0 34.8024V61.2682H11.7123Z" fill="#11294F"/>
<path d="M50.5248 61.2682V40.7521L86.4646 14.5023L106.304 14.4895L86.4646 0L38.8125 34.8024V61.2682H50.5248Z" fill="#3448FF"/>
<path d="M87.1047 47.6553V25.8034H91.9641V47.6553H87.1047ZM90.8499 47.6553V43.3839H101.652V47.6553H90.8499ZM109.778 47.9957C108.396 47.9957 107.168 47.7172 106.095 47.16C105.043 46.5823 104.217 45.7982 103.619 44.8077C103.021 43.7966 102.721 42.6411 102.721 41.3411V32.6127H107.457V41.2792C107.457 41.7951 107.539 42.2387 107.705 42.6101C107.89 42.9816 108.159 43.2704 108.509 43.4768C108.86 43.6831 109.283 43.7863 109.778 43.7863C110.48 43.7863 111.037 43.5696 111.45 43.1363C111.862 42.6824 112.069 42.0633 112.069 41.2792V32.6127H116.804V41.3102C116.804 42.6308 116.505 43.7966 115.907 44.8077C115.308 45.7982 114.483 46.5823 113.431 47.16C112.378 47.7172 111.161 47.9957 109.778 47.9957ZM128.166 47.6553L124.544 41.8054L123.523 41.1554L117.611 32.6127H123.151L126.525 38.0912L127.516 38.7102L133.644 47.6553H128.166ZM117.332 47.6553L123.492 38.8959L126.185 41.9292L122.501 47.6553H117.332ZM127.485 41.1245L124.792 38.0912L128.197 32.6127H133.335L127.485 41.1245ZM150.283 47.9957C148.652 47.9957 147.136 47.7172 145.733 47.16C144.35 46.5823 143.133 45.7775 142.08 44.7458C141.049 43.7141 140.244 42.5173 139.666 41.1554C139.088 39.7729 138.799 38.2872 138.799 36.6984C138.799 35.1095 139.088 33.6341 139.666 32.2723C140.244 30.8898 141.049 29.693 142.08 28.6819C143.112 27.6708 144.319 26.8867 145.702 26.3295C147.105 25.7518 148.621 25.4629 150.252 25.4629C151.985 25.4629 153.522 25.7415 154.863 26.2986C156.225 26.8557 157.412 27.6192 158.423 28.589L155.173 31.8699C154.595 31.2509 153.894 30.7659 153.068 30.4152C152.263 30.0644 151.325 29.889 150.252 29.889C149.302 29.889 148.425 30.0541 147.621 30.3842C146.837 30.6937 146.156 31.1477 145.578 31.7461C145.021 32.3445 144.577 33.0667 144.247 33.9127C143.937 34.7587 143.783 35.6873 143.783 36.6984C143.783 37.7301 143.937 38.669 144.247 39.515C144.577 40.361 145.021 41.0832 145.578 41.6816C146.156 42.28 146.837 42.7443 147.621 43.0744C148.425 43.4046 149.302 43.5696 150.252 43.5696C151.366 43.5696 152.336 43.3943 153.161 43.0435C153.986 42.6927 154.698 42.2078 155.297 41.5887L158.578 44.8696C157.525 45.8394 156.318 46.6029 154.956 47.16C153.615 47.7172 152.057 47.9957 150.283 47.9957ZM166.772 47.9957C165.224 47.9957 163.821 47.6553 162.562 46.9743C161.324 46.2728 160.344 45.3236 159.622 44.1268C158.9 42.93 158.538 41.5887 158.538 40.1031C158.538 38.6174 158.9 37.2864 159.622 36.1103C160.344 34.9341 161.324 34.0056 162.562 33.3246C163.8 32.6231 165.203 32.2723 166.772 32.2723C168.34 32.2723 169.743 32.6127 170.981 33.2937C172.219 33.9746 173.199 34.9135 173.921 36.1103C174.644 37.2864 175.005 38.6174 175.005 40.1031C175.005 41.5887 174.644 42.93 173.921 44.1268C173.199 45.3236 172.219 46.2728 170.981 46.9743C169.743 47.6553 168.34 47.9957 166.772 47.9957ZM166.772 43.6935C167.452 43.6935 168.051 43.549 168.567 43.2601C169.083 42.9506 169.475 42.5276 169.743 41.9911C170.032 41.434 170.176 40.8046 170.176 40.1031C170.176 39.4015 170.032 38.7928 169.743 38.2769C169.454 37.7404 169.052 37.3277 168.536 37.0388C168.041 36.7293 167.452 36.5746 166.772 36.5746C166.111 36.5746 165.523 36.7293 165.007 37.0388C164.491 37.3277 164.089 37.7404 163.8 38.2769C163.511 38.8134 163.367 39.4324 163.367 40.134C163.367 40.8149 163.511 41.434 163.8 41.9911C164.089 42.5276 164.491 42.9506 165.007 43.2601C165.523 43.549 166.111 43.6935 166.772 43.6935ZM186.369 47.6553V39.0816C186.369 38.2975 186.122 37.6682 185.626 37.1936C185.152 36.6984 184.543 36.4507 183.8 36.4507C183.284 36.4507 182.831 36.5642 182.438 36.7912C182.046 36.9976 181.737 37.3071 181.51 37.7198C181.283 38.1118 181.169 38.5658 181.169 39.0816L179.343 38.184C179.343 37.0079 179.601 35.9762 180.117 35.0889C180.633 34.2016 181.345 33.5207 182.253 33.0461C183.181 32.5508 184.223 32.3032 185.379 32.3032C186.493 32.3032 187.473 32.5715 188.319 33.108C189.186 33.6238 189.867 34.3151 190.362 35.1817C190.857 36.0484 191.105 36.9976 191.105 38.0293V47.6553H186.369ZM176.434 47.6553V32.6127H181.169V47.6553H176.434ZM198.696 48.0267C197.809 48.0267 196.932 47.9132 196.065 47.6862C195.219 47.4592 194.425 47.1394 193.682 46.7267C192.96 46.2934 192.341 45.7982 191.825 45.241L194.518 42.5173C195.013 43.0538 195.601 43.4768 196.282 43.7863C196.963 44.0752 197.706 44.2196 198.511 44.2196C199.068 44.2196 199.491 44.1371 199.78 43.972C200.089 43.8069 200.244 43.58 200.244 43.2911C200.244 42.9197 200.058 42.6411 199.687 42.4554C199.336 42.249 198.882 42.0736 198.325 41.9292C197.768 41.7641 197.18 41.5887 196.561 41.403C195.942 41.2173 195.354 40.9594 194.796 40.6292C194.239 40.2991 193.785 39.8451 193.435 39.2674C193.084 38.669 192.908 37.9158 192.908 37.0079C192.908 36.0381 193.156 35.2024 193.651 34.5008C194.146 33.7786 194.848 33.2111 195.756 32.7984C196.664 32.3858 197.727 32.1794 198.944 32.1794C200.223 32.1794 201.399 32.4064 202.472 32.8603C203.566 33.2937 204.453 33.9437 205.134 34.8103L202.441 37.5341C201.967 36.9769 201.43 36.5849 200.832 36.3579C200.254 36.1309 199.687 36.0174 199.13 36.0174C198.593 36.0174 198.191 36.1 197.923 36.265C197.654 36.4095 197.52 36.6261 197.52 36.915C197.52 37.2245 197.696 37.4722 198.046 37.6579C198.397 37.8436 198.851 38.0087 199.408 38.1531C199.965 38.2975 200.553 38.4729 201.172 38.6793C201.791 38.8856 202.38 39.1642 202.937 39.515C203.494 39.8658 203.948 40.3403 204.299 40.9387C204.649 41.5165 204.825 42.28 204.825 43.2292C204.825 44.6942 204.268 45.8601 203.153 46.7267C202.06 47.5934 200.574 48.0267 198.696 48.0267ZM208.601 47.6553V26.3914H213.337V47.6553H208.601ZM205.196 36.6365V32.6127H216.741V36.6365H205.196ZM217.899 47.6553V32.6127H222.635V47.6553H217.899ZM222.635 39.3912L220.654 37.8436C221.046 36.0896 221.707 34.7278 222.635 33.7579C223.564 32.7881 224.853 32.3032 226.504 32.3032C227.226 32.3032 227.856 32.4167 228.392 32.6437C228.949 32.85 229.434 33.1802 229.847 33.6341L227.03 37.1936C226.824 36.9666 226.566 36.7912 226.256 36.6674C225.947 36.5436 225.596 36.4817 225.204 36.4817C224.42 36.4817 223.791 36.7293 223.316 37.2245C222.862 37.6991 222.635 38.4213 222.635 39.3912ZM236.865 47.9957C235.483 47.9957 234.255 47.7172 233.182 47.16C232.13 46.5823 231.304 45.7982 230.706 44.8077C230.108 43.7966 229.808 42.6411 229.808 41.3411V32.6127H234.544V41.2792C234.544 41.7951 234.627 42.2387 234.792 42.6101C234.977 42.9816 235.246 43.2704 235.596 43.4768C235.947 43.6831 236.37 43.7863 236.865 43.7863C237.567 43.7863 238.124 43.5696 238.537 43.1363C238.949 42.6824 239.156 42.0633 239.156 41.2792V32.6127H243.891V41.3102C243.891 42.6308 243.592 43.7966 242.994 44.8077C242.395 45.7982 241.57 46.5823 240.518 47.16C239.465 47.7172 238.248 47.9957 236.865 47.9957ZM253.21 47.9957C251.662 47.9957 250.259 47.6553 249 46.9743C247.742 46.2934 246.751 45.3545 246.029 44.1577C245.307 42.9609 244.946 41.6197 244.946 40.134C244.946 38.6277 245.307 37.2864 246.029 36.1103C246.772 34.9135 247.773 33.9746 249.031 33.2937C250.29 32.6127 251.703 32.2723 253.272 32.2723C254.448 32.2723 255.521 32.4786 256.491 32.8913C257.481 33.2834 258.358 33.8818 259.122 34.6865L256.088 37.7198C255.738 37.3277 255.325 37.0388 254.85 36.8531C254.396 36.6674 253.87 36.5746 253.272 36.5746C252.591 36.5746 251.982 36.7293 251.446 37.0388C250.93 37.3277 250.517 37.7404 250.207 38.2769C249.919 38.7928 249.774 39.4015 249.774 40.1031C249.774 40.8046 249.919 41.4237 250.207 41.9602C250.517 42.4967 250.94 42.9197 251.477 43.2292C252.013 43.5387 252.611 43.6935 253.272 43.6935C253.891 43.6935 254.438 43.5903 254.912 43.3839C255.407 43.157 255.83 42.8474 256.181 42.4554L259.183 45.4887C258.399 46.314 257.512 46.9434 256.522 47.3767C255.531 47.7894 254.427 47.9957 253.21 47.9957ZM262.256 47.6553V26.3914H266.992V47.6553H262.256ZM258.852 36.6365V32.6127H270.397V36.6365H258.852Z" fill="#11294F"/>
<path d="M90.544 64.14C89.8627 64.14 89.2233 64.014 88.626 63.762C88.038 63.5007 87.52 63.1413 87.072 62.684C86.6333 62.2267 86.288 61.6947 86.036 61.088C85.784 60.4813 85.658 59.828 85.658 59.128C85.658 58.428 85.784 57.7793 86.036 57.182C86.288 56.5753 86.638 56.0433 87.086 55.586C87.534 55.1287 88.0567 54.774 88.654 54.522C89.2607 54.27 89.9187 54.144 90.628 54.144C91.4027 54.144 92.1167 54.2933 92.77 54.592C93.4233 54.8907 93.9693 55.32 94.408 55.88L93.498 56.79C93.19 56.342 92.784 56.0013 92.28 55.768C91.776 55.5253 91.2253 55.404 90.628 55.404C89.9187 55.404 89.2887 55.5627 88.738 55.88C88.1967 56.1973 87.772 56.636 87.464 57.196C87.1653 57.756 87.016 58.4 87.016 59.128C87.016 59.8653 87.17 60.514 87.478 61.074C87.786 61.634 88.2013 62.0727 88.724 62.39C89.2467 62.7073 89.844 62.866 90.516 62.866C91.1973 62.866 91.7853 62.7353 92.28 62.474C92.784 62.2127 93.1713 61.83 93.442 61.326C93.7127 60.8127 93.848 60.1873 93.848 59.45L94.646 60.024H90.446V58.82H95.206V59.016C95.206 60.1453 95.0053 61.0927 94.604 61.858C94.212 62.614 93.6613 63.1833 92.952 63.566C92.252 63.9487 91.4493 64.14 90.544 64.14ZM99.9721 64.14C99.3095 64.14 98.7121 63.9907 98.1801 63.692C97.6481 63.384 97.2281 62.9687 96.9201 62.446C96.6121 61.9233 96.4581 61.3307 96.4581 60.668C96.4581 60.0147 96.6075 59.4267 96.9061 58.904C97.2141 58.3813 97.6248 57.9707 98.1381 57.672C98.6608 57.364 99.2441 57.21 99.8881 57.21C100.504 57.21 101.045 57.35 101.512 57.63C101.988 57.91 102.357 58.2973 102.618 58.792C102.889 59.2867 103.024 59.8467 103.024 60.472C103.024 60.5653 103.019 60.668 103.01 60.78C103.001 60.8827 102.982 61.004 102.954 61.144H97.3401V60.094H102.282L101.82 60.5C101.82 60.052 101.741 59.674 101.582 59.366C101.423 59.0487 101.199 58.806 100.91 58.638C100.621 58.4607 100.271 58.372 99.8601 58.372C99.4308 58.372 99.0528 58.4653 98.7261 58.652C98.3995 58.8387 98.1475 59.1 97.9701 59.436C97.7928 59.772 97.7041 60.1687 97.7041 60.626C97.7041 61.0927 97.7975 61.5033 97.9841 61.858C98.1708 62.2033 98.4368 62.474 98.7821 62.67C99.1275 62.8567 99.5241 62.95 99.9721 62.95C100.345 62.95 100.686 62.8847 100.994 62.754C101.311 62.6233 101.582 62.4273 101.806 62.166L102.618 62.992C102.301 63.3653 101.909 63.65 101.442 63.846C100.985 64.042 100.495 64.14 99.9721 64.14ZM109.242 64V60.122C109.242 59.618 109.083 59.2027 108.766 58.876C108.449 58.5493 108.038 58.386 107.534 58.386C107.198 58.386 106.899 58.4607 106.638 58.61C106.377 58.7593 106.171 58.9647 106.022 59.226C105.873 59.4873 105.798 59.786 105.798 60.122L105.28 59.828C105.28 59.324 105.392 58.876 105.616 58.484C105.84 58.092 106.153 57.784 106.554 57.56C106.955 57.3267 107.408 57.21 107.912 57.21C108.416 57.21 108.859 57.336 109.242 57.588C109.634 57.84 109.942 58.1713 110.166 58.582C110.39 58.9833 110.502 59.4127 110.502 59.87V64H109.242ZM104.538 64V57.35H105.798V64H104.538ZM115.428 64.14C114.765 64.14 114.168 63.9907 113.636 63.692C113.104 63.384 112.684 62.9687 112.376 62.446C112.068 61.9233 111.914 61.3307 111.914 60.668C111.914 60.0147 112.063 59.4267 112.362 58.904C112.67 58.3813 113.081 57.9707 113.594 57.672C114.117 57.364 114.7 57.21 115.344 57.21C115.96 57.21 116.501 57.35 116.968 57.63C117.444 57.91 117.813 58.2973 118.074 58.792C118.345 59.2867 118.48 59.8467 118.48 60.472C118.48 60.5653 118.475 60.668 118.466 60.78C118.457 60.8827 118.438 61.004 118.41 61.144H112.796V60.094H117.738L117.276 60.5C117.276 60.052 117.197 59.674 117.038 59.366C116.879 59.0487 116.655 58.806 116.366 58.638C116.077 58.4607 115.727 58.372 115.316 58.372C114.887 58.372 114.509 58.4653 114.182 58.652C113.855 58.8387 113.603 59.1 113.426 59.436C113.249 59.772 113.16 60.1687 113.16 60.626C113.16 61.0927 113.253 61.5033 113.44 61.858C113.627 62.2033 113.893 62.474 114.238 62.67C114.583 62.8567 114.98 62.95 115.428 62.95C115.801 62.95 116.142 62.8847 116.45 62.754C116.767 62.6233 117.038 62.4273 117.262 62.166L118.074 62.992C117.757 63.3653 117.365 63.65 116.898 63.846C116.441 64.042 115.951 64.14 115.428 64.14ZM119.994 64V57.35H121.254V64H119.994ZM121.254 60.206L120.778 59.996C120.778 59.1467 120.974 58.47 121.366 57.966C121.758 57.462 122.322 57.21 123.06 57.21C123.396 57.21 123.699 57.2707 123.97 57.392C124.24 57.504 124.492 57.6953 124.726 57.966L123.9 58.82C123.76 58.6707 123.606 58.5633 123.438 58.498C123.27 58.4327 123.074 58.4 122.85 58.4C122.383 58.4 122 58.5493 121.702 58.848C121.403 59.1467 121.254 59.5993 121.254 60.206ZM128.362 64.14C127.755 64.14 127.205 63.9907 126.71 63.692C126.215 63.384 125.823 62.9687 125.534 62.446C125.254 61.9233 125.114 61.3353 125.114 60.682C125.114 60.0287 125.254 59.4407 125.534 58.918C125.823 58.3953 126.211 57.98 126.696 57.672C127.191 57.364 127.746 57.21 128.362 57.21C128.866 57.21 129.314 57.3173 129.706 57.532C130.107 57.7373 130.429 58.0267 130.672 58.4C130.915 58.764 131.05 59.1887 131.078 59.674V61.676C131.05 62.152 130.915 62.5767 130.672 62.95C130.439 63.3233 130.121 63.6173 129.72 63.832C129.328 64.0373 128.875 64.14 128.362 64.14ZM128.572 62.95C129.197 62.95 129.701 62.74 130.084 62.32C130.467 61.8907 130.658 61.3447 130.658 60.682C130.658 60.2247 130.569 59.828 130.392 59.492C130.224 59.1467 129.981 58.8807 129.664 58.694C129.347 58.498 128.978 58.4 128.558 58.4C128.138 58.4 127.765 58.498 127.438 58.694C127.121 58.89 126.869 59.1607 126.682 59.506C126.505 59.842 126.416 60.2293 126.416 60.668C126.416 61.116 126.505 61.5127 126.682 61.858C126.869 62.194 127.125 62.46 127.452 62.656C127.779 62.852 128.152 62.95 128.572 62.95ZM130.574 64V62.208L130.812 60.584L130.574 58.974V57.35H131.848V64H130.574ZM133.823 64V54.004H135.083V64H133.823ZM144.752 64.14C144.052 64.14 143.404 64.014 142.806 63.762C142.209 63.5007 141.686 63.1413 141.238 62.684C140.8 62.2267 140.459 61.6947 140.216 61.088C139.974 60.4813 139.852 59.8327 139.852 59.142C139.852 58.442 139.974 57.7887 140.216 57.182C140.459 56.5753 140.8 56.048 141.238 55.6C141.686 55.1427 142.204 54.788 142.792 54.536C143.39 54.2747 144.038 54.144 144.738 54.144C145.504 54.144 146.176 54.2747 146.754 54.536C147.333 54.7973 147.846 55.152 148.294 55.6L147.384 56.51C147.076 56.1647 146.698 55.894 146.25 55.698C145.812 55.502 145.308 55.404 144.738 55.404C144.225 55.404 143.754 55.4973 143.324 55.684C142.895 55.8613 142.522 56.118 142.204 56.454C141.887 56.79 141.64 57.1867 141.462 57.644C141.294 58.1013 141.21 58.6007 141.21 59.142C141.21 59.6833 141.294 60.1827 141.462 60.64C141.64 61.0973 141.887 61.494 142.204 61.83C142.522 62.166 142.895 62.4273 143.324 62.614C143.754 62.7913 144.225 62.88 144.738 62.88C145.345 62.88 145.872 62.782 146.32 62.586C146.768 62.3807 147.146 62.1053 147.454 61.76L148.364 62.656C147.916 63.1227 147.389 63.4867 146.782 63.748C146.185 64.0093 145.508 64.14 144.752 64.14ZM152.702 64.14C152.049 64.14 151.461 63.986 150.938 63.678C150.416 63.37 150 62.9547 149.692 62.432C149.384 61.9 149.23 61.3073 149.23 60.654C149.23 60.01 149.384 59.4313 149.692 58.918C150 58.3953 150.416 57.98 150.938 57.672C151.461 57.364 152.049 57.21 152.702 57.21C153.346 57.21 153.93 57.364 154.452 57.672C154.984 57.9707 155.404 58.3813 155.712 58.904C156.02 59.4267 156.174 60.01 156.174 60.654C156.174 61.3073 156.02 61.9 155.712 62.432C155.404 62.9547 154.984 63.37 154.452 63.678C153.93 63.986 153.346 64.14 152.702 64.14ZM152.702 62.922C153.122 62.922 153.496 62.824 153.822 62.628C154.149 62.432 154.406 62.166 154.592 61.83C154.779 61.4847 154.872 61.0927 154.872 60.654C154.872 60.2247 154.774 59.842 154.578 59.506C154.392 59.17 154.135 58.9087 153.808 58.722C153.491 58.526 153.122 58.428 152.702 58.428C152.282 58.428 151.909 58.526 151.582 58.722C151.256 58.9087 150.999 59.17 150.812 59.506C150.626 59.842 150.532 60.2247 150.532 60.654C150.532 61.0927 150.626 61.4847 150.812 61.83C150.999 62.166 151.256 62.432 151.582 62.628C151.909 62.824 152.282 62.922 152.702 62.922ZM162.438 64V60.122C162.438 59.618 162.279 59.2027 161.962 58.876C161.645 58.5493 161.234 58.386 160.73 58.386C160.394 58.386 160.095 58.4607 159.834 58.61C159.573 58.7593 159.367 58.9647 159.218 59.226C159.069 59.4873 158.994 59.786 158.994 60.122L158.476 59.828C158.476 59.324 158.588 58.876 158.812 58.484C159.036 58.092 159.349 57.784 159.75 57.56C160.151 57.3267 160.604 57.21 161.108 57.21C161.612 57.21 162.055 57.336 162.438 57.588C162.83 57.84 163.138 58.1713 163.362 58.582C163.586 58.9833 163.698 59.4127 163.698 59.87V64H162.438ZM157.734 64V57.35H158.994V64H157.734ZM166.484 64V54.564H167.744V64H166.484ZM164.846 58.498V57.35H169.382V58.498H164.846ZM170.756 64V57.35H172.016V64H170.756ZM172.016 60.206L171.54 59.996C171.54 59.1467 171.736 58.47 172.128 57.966C172.52 57.462 173.085 57.21 173.822 57.21C174.158 57.21 174.462 57.2707 174.732 57.392C175.003 57.504 175.255 57.6953 175.488 57.966L174.662 58.82C174.522 58.6707 174.368 58.5633 174.2 58.498C174.032 58.4327 173.836 58.4 173.612 58.4C173.146 58.4 172.763 58.5493 172.464 58.848C172.166 59.1467 172.016 59.5993 172.016 60.206ZM179.125 64.14C178.518 64.14 177.967 63.9907 177.473 63.692C176.978 63.384 176.586 62.9687 176.297 62.446C176.017 61.9233 175.877 61.3353 175.877 60.682C175.877 60.0287 176.017 59.4407 176.297 58.918C176.586 58.3953 176.973 57.98 177.459 57.672C177.953 57.364 178.509 57.21 179.125 57.21C179.629 57.21 180.077 57.3173 180.469 57.532C180.87 57.7373 181.192 58.0267 181.435 58.4C181.677 58.764 181.813 59.1887 181.841 59.674V61.676C181.813 62.152 181.677 62.5767 181.435 62.95C181.201 63.3233 180.884 63.6173 180.483 63.832C180.091 64.0373 179.638 64.14 179.125 64.14ZM179.335 62.95C179.96 62.95 180.464 62.74 180.847 62.32C181.229 61.8907 181.421 61.3447 181.421 60.682C181.421 60.2247 181.332 59.828 181.155 59.492C180.987 59.1467 180.744 58.8807 180.427 58.694C180.109 58.498 179.741 58.4 179.321 58.4C178.901 58.4 178.527 58.498 178.201 58.694C177.883 58.89 177.631 59.1607 177.445 59.506C177.267 59.842 177.179 60.2293 177.179 60.668C177.179 61.116 177.267 61.5127 177.445 61.858C177.631 62.194 177.888 62.46 178.215 62.656C178.541 62.852 178.915 62.95 179.335 62.95ZM181.337 64V62.208L181.575 60.584L181.337 58.974V57.35H182.611V64H181.337ZM187.623 64.14C186.97 64.14 186.377 63.986 185.845 63.678C185.323 63.37 184.907 62.9547 184.599 62.432C184.301 61.9 184.151 61.312 184.151 60.668C184.151 60.0147 184.301 59.4267 184.599 58.904C184.907 58.3813 185.323 57.9707 185.845 57.672C186.377 57.364 186.97 57.21 187.623 57.21C188.137 57.21 188.613 57.308 189.051 57.504C189.49 57.6907 189.868 57.966 190.185 58.33L189.345 59.17C189.14 58.9273 188.888 58.7453 188.589 58.624C188.3 58.4933 187.978 58.428 187.623 58.428C187.203 58.428 186.83 58.526 186.503 58.722C186.177 58.9087 185.92 59.17 185.733 59.506C185.547 59.842 185.453 60.2293 185.453 60.668C185.453 61.1067 185.547 61.494 185.733 61.83C185.92 62.166 186.177 62.432 186.503 62.628C186.83 62.824 187.203 62.922 187.623 62.922C187.978 62.922 188.3 62.8613 188.589 62.74C188.888 62.6093 189.145 62.4227 189.359 62.18L190.185 63.02C189.877 63.3747 189.499 63.65 189.051 63.846C188.613 64.042 188.137 64.14 187.623 64.14ZM192.515 64V54.564H193.775V64H192.515ZM190.877 58.498V57.35H195.413V58.498H190.877ZM199.62 64.14C198.967 64.14 198.379 63.986 197.856 63.678C197.333 63.37 196.918 62.9547 196.61 62.432C196.302 61.9 196.148 61.3073 196.148 60.654C196.148 60.01 196.302 59.4313 196.61 58.918C196.918 58.3953 197.333 57.98 197.856 57.672C198.379 57.364 198.967 57.21 199.62 57.21C200.264 57.21 200.847 57.364 201.37 57.672C201.902 57.9707 202.322 58.3813 202.63 58.904C202.938 59.4267 203.092 60.01 203.092 60.654C203.092 61.3073 202.938 61.9 202.63 62.432C202.322 62.9547 201.902 63.37 201.37 63.678C200.847 63.986 200.264 64.14 199.62 64.14ZM199.62 62.922C200.04 62.922 200.413 62.824 200.74 62.628C201.067 62.432 201.323 62.166 201.51 61.83C201.697 61.4847 201.79 61.0927 201.79 60.654C201.79 60.2247 201.692 59.842 201.496 59.506C201.309 59.17 201.053 58.9087 200.726 58.722C200.409 58.526 200.04 58.428 199.62 58.428C199.2 58.428 198.827 58.526 198.5 58.722C198.173 58.9087 197.917 59.17 197.73 59.506C197.543 59.842 197.45 60.2247 197.45 60.654C197.45 61.0927 197.543 61.4847 197.73 61.83C197.917 62.166 198.173 62.432 198.5 62.628C198.827 62.824 199.2 62.922 199.62 62.922ZM204.652 64V57.35H205.912V64H204.652ZM205.912 60.206L205.436 59.996C205.436 59.1467 205.632 58.47 206.024 57.966C206.416 57.462 206.98 57.21 207.718 57.21C208.054 57.21 208.357 57.2707 208.628 57.392C208.898 57.504 209.15 57.6953 209.384 57.966L208.558 58.82C208.418 58.6707 208.264 58.5633 208.096 58.498C207.928 58.4327 207.732 58.4 207.508 58.4C207.041 58.4 206.658 58.5493 206.36 58.848C206.061 59.1467 205.912 59.5993 205.912 60.206Z" fill="#11294F"/>
</svg>
